<svg width="55" height="55" viewBox="0 0 55 55" fill="none" xmlns="http://www.w3.org/2000/svg">
<path d="M32.6562 41.1425C32.6562 45.4608 32.6455 49.7685 32.667 54.0868C32.667 54.5595 32.5381 54.6884 32.0654 54.6776C28.3916 54.6562 24.7285 54.6562 21.0547 54.6776C20.5498 54.6776 20.3887 54.5595 20.3887 54.0331C20.4102 45.4716 20.3994 36.9208 20.3994 28.3593C20.3994 27.4999 20.4961 27.6073 19.6152 27.5966C18.0576 27.5966 16.5 27.5859 14.9424 27.6073C14.5664 27.6073 14.459 27.4892 14.459 27.1132C14.4697 24.3954 14.4697 21.6669 14.459 18.9491C14.459 18.5732 14.5664 18.455 14.9424 18.4657C16.5752 18.4872 18.1973 18.455 19.8301 18.4872C20.2705 18.498 20.4102 18.3798 20.4102 17.9179C20.3887 15.6298 20.4102 13.331 20.3994 11.0429C20.3887 9.14152 20.6787 7.30461 21.6348 5.62883C22.666 3.80265 24.2129 2.54582 26.125 1.72941C27.7363 1.04191 29.4336 0.719647 31.1738 0.622967C34.6221 0.429608 38.081 0.590741 41.5293 0.526287C41.916 0.515545 42.0127 0.655194 42.0127 1.02043C42.0019 3.84562 42.0019 6.68156 42.0127 9.50675C42.0127 9.93644 41.8516 10.0009 41.4756 10.0009C39.4883 9.99015 37.501 9.99015 35.5137 9.99015C33.8594 9.99015 32.667 11.1825 32.667 12.8153C32.667 14.5019 32.6885 16.1777 32.6562 17.8642C32.6455 18.3476 32.8066 18.4657 33.2686 18.4657C35.9863 18.4443 38.7148 18.4657 41.4326 18.4443C41.8838 18.4443 42.0342 18.5732 41.9805 19.0243C41.8193 20.4101 41.6797 21.7958 41.5293 23.1816C41.3896 24.5136 41.1533 25.8349 40.9385 27.1562C40.874 27.5321 40.7559 27.6181 40.4121 27.6181C38.081 27.6073 35.7607 27.6073 33.4297 27.6181C32.5166 27.6181 32.6455 27.4999 32.6455 28.4237C32.6562 32.6562 32.6562 36.8993 32.6562 41.1425Z" fill="#A7A7A7"/>
</svg>
