<svg width="55" height="55" viewBox="0 0 55 55" fill="none" xmlns="http://www.w3.org/2000/svg">
<path d="M54.2481 27.6073C54.2481 31.453 54.2588 35.2987 54.2481 39.1552C54.2266 44.7411 51.627 48.8768 46.9863 51.7987C44.2686 53.496 41.25 54.2479 38.0488 54.2479C31.0449 54.2479 24.0518 54.2801 17.0479 54.2372C12.1817 54.205 7.9922 52.4862 4.67286 48.8768C2.62111 46.6425 1.3965 44.0106 1.04201 40.9706C0.96681 40.326 0.956068 39.6923 0.956068 39.0477C0.956068 31.3885 0.945326 23.7294 0.956068 16.0702C0.988295 10.4735 3.5879 6.33777 8.22853 3.4159C10.9678 1.70789 13.9971 0.96668 17.2197 0.96668C24.2022 0.96668 31.1846 0.934453 38.167 0.977422C43.0547 1.00965 47.2549 2.73914 50.5742 6.37C52.6045 8.59363 53.8184 11.2255 54.1621 14.2333C54.3018 15.4149 54.2373 16.5966 54.2481 17.7675C54.2588 21.0546 54.2481 24.3309 54.2481 27.6073ZM4.94142 27.6073C4.94142 31.5497 4.93068 35.4813 4.94142 39.4237C4.95216 42.1307 5.94044 44.4618 7.7881 46.3954C10.2695 48.9842 13.3633 50.2411 16.919 50.2626C23.9766 50.3055 31.0234 50.2733 38.0811 50.2733C40.3584 50.2733 42.5283 49.7792 44.5049 48.6405C48.2002 46.5243 50.2842 43.4091 50.2842 39.0477C50.2842 31.2919 50.2842 23.5468 50.2842 15.7909C50.2842 13.1054 49.3066 10.785 47.4697 8.86219C45.0098 6.26258 41.9053 4.98426 38.3604 4.96277C31.2276 4.90906 24.1055 4.94129 16.9727 4.94129C14.749 4.94129 12.6436 5.46766 10.71 6.56336C7.0254 8.69031 4.93068 11.8055 4.94142 16.1669C4.94142 19.9803 4.94142 23.7938 4.94142 27.6073Z" fill="#A7A7A7"/>
<path d="M27.6397 38.9939C20.7002 38.9939 15.1358 33.4509 15.1465 26.533C15.1572 19.7976 20.7969 14.2761 27.6826 14.2869C34.6006 14.2869 40.1865 19.8406 40.1758 26.6941C40.1651 33.4832 34.5469 38.9939 27.6397 38.9939ZM27.6397 35.0193C32.3555 35.0193 36.2012 31.2703 36.2012 26.6619C36.2012 22.032 32.3877 18.2615 27.6826 18.2615C22.9668 18.2615 19.1211 22.0105 19.1211 26.6189C19.1211 31.2488 22.9346 35.0193 27.6397 35.0193Z" fill="#A7A7A7"/>
<path d="M38.9941 13.2773C38.9941 11.752 40.165 10.5273 41.626 10.5273C43.0869 10.5273 44.2578 11.7627 44.2578 13.2773C44.2578 14.7705 43.0869 15.9951 41.6475 16.0059C40.1865 16.0166 38.9941 14.8027 38.9941 13.2773Z" fill="#A7A7A7"/>
</svg>
