<svg width="256" height="250" viewBox="0 0 256 250" fill="none" xmlns="http://www.w3.org/2000/svg">
<g clip-path="url(#clip0_181_2)">
<path d="M0 125L0 250H128H256V125V8.9407e-06H128H0L0 125ZM167.145 43.2836C168.236 43.3769 169.171 43.4702 169.223 43.4935C169.275 43.4935 169.778 43.6101 170.349 43.7034C170.921 43.7966 171.665 43.9366 171.995 43.9832C172.999 44.1698 175.303 44.7761 176.048 45.0327C176.446 45.1726 177.035 45.3825 177.364 45.4758C178.836 45.9888 183.305 47.9478 184.639 48.694C187.756 50.3965 193.594 54.5243 195.863 56.5998C197.196 57.8358 198.668 59.2351 198.928 59.4916C202.41 63.2929 205.302 66.931 207.831 70.7789C209.026 72.598 211.018 76.1427 212.179 78.4282C212.975 80.0606 213.062 80.3405 212.889 80.8302C212.785 81.1567 212.577 81.4599 212.438 81.5299C211.85 81.8563 211.382 81.3433 210.325 79.2211C209.078 76.7258 209.009 76.6091 206.584 72.6446C205.787 71.3619 201.7 65.7883 200.747 64.7155C200.418 64.319 199.552 63.3862 198.842 62.6166C198.132 61.847 197.508 61.1707 197.456 61.1008C197.3 60.8909 196.226 59.9114 194.685 58.5355C191.567 55.7603 187.046 52.5653 184.292 51.1661C183.669 50.8629 183.011 50.5131 182.82 50.3965C182.214 50 179.217 48.7174 177.884 48.2276C171.995 46.1754 167.734 45.4758 161.689 45.5924C152.838 45.7789 144.455 48.5541 136.66 53.8946C131.984 57.0896 129.49 59.305 125.419 63.8293C123.722 65.7183 123.185 66.208 122.908 66.0914C121.868 65.6716 121.851 64.7621 122.856 63.5261C124.571 61.3573 128.658 57.1362 130.13 55.9935C130.442 55.7369 131.343 55.014 132.157 54.3377C139.795 48.0644 149.686 43.9366 158.762 43.2369C159.905 43.1437 160.84 43.0737 160.857 43.0504C160.944 42.9571 165.361 43.1203 167.145 43.2836ZM62.9261 65.042C64.5543 65.6017 65.4723 66.3713 66.2344 67.8172C67.2217 69.6129 67.4641 71.0121 67.4468 74.6269C67.4468 77.9151 67.1524 80.5504 66.2344 85.4711C64.7621 93.3536 60.8303 105.76 58.925 108.489C58.5613 109.025 58.3361 109.142 57.626 109.142C56.5694 109.142 56.1191 108.815 56.1191 108.092C56.1191 107.766 56.8465 105.271 57.7472 102.542C60.5878 93.8899 61.7656 89.8554 62.8222 85.1213C64.7968 76.1894 64.6755 70.1726 62.4758 68.0504C62.0081 67.6073 61.6963 67.514 60.6225 67.514C57.2622 67.5373 51.8409 71.5485 47.147 77.5187C40.3919 86.1241 33.9486 100.606 30.2073 115.555C26.2582 131.273 24.9072 146.525 26.4314 157.766C27.0723 162.593 28.9083 167.91 30.9348 170.942C31.7142 172.108 33.3077 173.647 34.728 174.65C37.6379 176.679 41.3445 176.866 45.7267 175.233C47.7359 174.487 49.312 173.601 52.603 171.292C57.1064 168.144 59.9816 165.415 63.3245 161.101C66.4769 156.996 68.8498 152.892 72.262 145.639C74.3058 141.301 75.4143 138.34 75.7608 136.334C76.1418 134.165 76.6095 133.046 77.8392 131.39C78.9824 129.874 80.2295 128.941 81.7191 128.521C83.0181 128.148 85.5123 128.195 86.5516 128.615C88.4568 129.384 89.0111 131.507 87.7467 133.209C86.794 134.492 85.7028 135.005 83.2087 135.285C80.0909 135.634 79.7445 135.774 79.4847 136.824C79.2249 137.943 79.3808 140.065 79.8138 141.231C80.2641 142.421 80.7838 143.05 81.823 143.68C82.5332 144.1 82.8796 144.146 83.7802 144.053C86.0493 143.75 89.9291 141.488 93.9302 138.106L95.5237 136.754L95.6622 134.655C95.8355 131.996 96.026 131.017 96.5802 130.131C96.9267 129.571 97.1691 129.431 97.6888 129.431C98.5894 129.431 98.8666 129.618 99.1783 130.387C99.3862 130.97 99.4208 131.786 99.3169 135.331C99.1957 139.902 99.2996 140.928 99.9924 141.954C100.512 142.747 101.603 142.677 102.469 141.838C103.387 140.928 104.86 138.713 105.431 137.407C105.691 136.8 105.968 136.264 106.037 136.194C106.107 136.124 106.089 134.958 105.985 133.629C105.708 129.711 105.587 111.287 105.812 106.227C106.349 94.1465 107.562 86.0075 109.501 81.4366C111.528 76.6558 115.148 78.3582 116.36 84.6549C116.759 86.7537 116.828 94.403 116.499 98.4142C115.546 109.678 113.762 119.263 110.939 128.382C109.415 133.279 109.242 134.072 109.38 135.961C109.536 138.246 110.142 141.954 110.627 143.563C111.961 148.088 113.832 148.554 116.447 144.986C118.023 142.817 118.716 141.255 118.941 139.366C119.392 135.728 121.487 132.136 124.259 130.247C125.592 129.338 125.679 129.314 127.376 129.314C128.831 129.314 129.264 129.408 129.975 129.851L130.841 130.387L131.187 129.804C131.966 128.568 133.196 128.358 133.958 129.314C134.495 129.967 134.513 130.457 134.149 133.629C133.75 137.034 133.802 139.599 134.287 140.858C134.703 142.024 135.24 142.491 136.123 142.491C137.145 142.491 138.133 141.628 139.778 139.296L141.337 137.08V133.605C141.337 130.317 141.354 130.131 141.718 129.804C142.272 129.268 143.502 129.314 143.935 129.897C144.333 130.434 144.42 130.854 144.593 133.162L144.714 134.911L145.702 133.139C146.88 130.993 148.317 129.198 149.426 128.475C150.604 127.682 152.613 127.682 153.427 128.451C154.466 129.454 154.605 130.084 154.518 133.745C154.483 135.541 154.431 138.246 154.431 139.739C154.414 142.281 154.449 142.514 154.812 143.004C155.194 143.517 155.211 143.517 155.765 143.12C156.648 142.467 158.311 139.342 159.87 135.331C160.563 133.535 161.983 131.693 163.282 130.877C164.547 130.107 166.833 129.897 168.478 130.434L169.552 130.76L169.31 130.037C169.189 129.641 168.686 128.148 168.219 126.749C165.586 118.913 164.356 111.287 164.356 102.612C164.356 92.7006 166.521 85.2379 170.765 80.597C174.194 76.8424 178.23 76.1427 181.763 78.6614C186.18 81.8097 188.796 91.4646 188.38 103.078C187.947 115.089 184.864 124.837 178.109 135.564C177.312 136.824 176.671 137.943 176.671 138.036C176.671 138.643 179.46 142.771 180.43 143.61C182.924 145.756 185.782 144.706 188.917 140.485C189.8 139.319 190.545 138.106 190.597 137.803C190.632 137.5 190.753 136.147 190.857 134.795C191.151 130.62 191.619 129.431 192.935 129.431C194.598 129.431 194.719 129.874 194.581 135.308C194.425 141.255 194.719 142.491 196.296 142.491C197.681 142.491 199.361 140.345 200.141 137.593C201.076 134.212 202.843 131.693 205.424 130.061C206.29 129.501 206.827 129.314 207.935 129.244C209.269 129.151 209.875 129.314 211.503 130.224C211.694 130.34 211.815 130.247 211.884 129.897C211.988 129.361 212.958 128.731 213.737 128.731C214.067 128.731 214.448 128.988 214.811 129.384L215.348 130.061L214.95 134.118C214.482 138.969 214.586 140.299 215.539 141.674C216.024 142.351 216.232 142.491 216.855 142.491C217.6 142.491 218.587 142.001 218.934 141.441C219.02 141.278 219.263 140.065 219.453 138.736C219.627 137.407 219.817 136.077 219.869 135.774C220.406 132.393 220.718 122.132 220.423 117.771C220.042 112.01 219.349 106.903 218.224 101.656C217.565 98.5774 217.548 98.3442 217.808 97.8078C218.102 97.2015 218.535 97.0849 218.986 97.528C219.678 98.2276 221.133 105.69 221.792 111.94C221.93 113.41 222.103 114.925 222.155 115.322C222.207 115.695 222.277 118.75 222.311 122.085C222.381 127.892 222.259 131.413 221.878 134.445C221.792 135.215 221.67 136.264 221.601 136.777C221.549 137.29 221.463 137.803 221.393 137.943C221.341 138.06 221.774 137.523 222.329 136.707C222.9 135.914 223.454 135.261 223.576 135.261C224.476 135.261 223.264 138.923 221.324 142.048C220.891 142.747 220.527 143.68 220.302 144.729C218.795 151.586 218.206 153.591 215.868 159.795C213.426 166.301 211.919 169.45 208.645 174.86C207.138 177.355 202.981 183.069 201.492 184.701C200.955 185.285 200.435 185.868 200.331 186.007C199.812 186.66 196.659 189.715 195.118 191.045C190.822 194.799 185.972 197.878 180.742 200.21C179.876 200.606 175.667 202.076 174.922 202.285C174.697 202.332 174.194 202.449 173.813 202.542C173.432 202.635 172.965 202.752 172.774 202.799C171.873 203.032 168.444 203.591 166.972 203.755C163.057 204.174 157.549 203.848 152.873 202.892C151.66 202.659 151.106 202.076 151.279 201.189C151.435 200.326 152.093 200.117 153.444 200.466C154.068 200.63 155.055 200.84 155.627 200.91C156.198 200.979 156.908 201.096 157.185 201.166C158.536 201.446 166.14 201.423 168.271 201.119C180.291 199.394 191.498 192.957 200.314 182.743C201.578 181.273 205.493 176.073 206.376 174.674C211.503 166.558 215.123 157.976 217.652 147.878C217.981 146.549 218.224 145.406 218.172 145.359C218.12 145.289 217.739 145.359 217.306 145.499C215.573 146.082 213.149 145.662 212.3 144.636C211.85 144.1 211.365 142.771 211.226 141.674C211.157 141.161 211.053 140.672 211.018 140.578C210.983 140.485 210.481 141.325 209.927 142.467C208.714 144.869 207.814 146.059 206.532 146.852C204.765 147.948 202.773 147.785 201.215 146.455C200.626 145.965 200.314 145.452 199.933 144.403L199.448 143.027L198.842 143.797C197.906 144.986 196.503 145.849 195.291 145.942C194.148 146.035 193.594 145.779 192.468 144.66C191.809 144.007 190.874 141.931 190.874 141.115C190.874 140.602 190.822 140.648 190.389 141.465C189.419 143.237 187.168 145.849 185.765 146.805C184.483 147.691 184.327 147.738 182.837 147.715C181.434 147.715 181.123 147.621 180.049 146.968C178.628 146.059 176.792 144.216 175.493 142.397C174.974 141.674 174.419 141.091 174.246 141.091C174.073 141.091 173.051 141.884 171.977 142.864C167.543 146.875 164.408 148.134 161.585 147.015C160.372 146.525 159.333 145.126 159.004 143.54L158.779 142.421L158.242 143.33C155.523 147.948 152.405 148.251 151.019 144.03C150.673 143.027 150.621 142.444 150.621 140.159C150.621 138.689 150.673 136.077 150.759 134.375C150.915 131.343 150.915 131.297 150.552 131.297C149.547 131.297 147.226 136.754 145.459 143.307C144.611 146.432 144.178 147.155 143.121 147.155C142.549 147.155 142.255 147.015 141.943 146.572C141.527 146.035 141.51 145.872 141.51 143.167V140.322L141.025 141.231C140.176 142.794 138.635 144.52 137.561 145.079C136.245 145.779 133.075 145.872 132.209 145.219C131.152 144.45 130.512 143.144 130.286 141.255L130.148 140.275L129.195 142.257C128 144.706 127.047 145.965 125.818 146.782C123.445 148.344 120.483 147.528 119.34 144.986L119.028 144.333L118.681 145.126C118.162 146.245 116.43 148.391 115.529 149.044C114.854 149.534 114.507 149.604 113.018 149.604C111.58 149.604 111.164 149.51 110.593 149.114C109.692 148.461 108.722 147.178 108.168 145.896C107.579 144.566 106.765 141.488 106.609 140.089L106.47 138.946L105.829 140.322C104.894 142.327 103.197 144.52 102.054 145.243C100.91 145.942 99.5421 146.152 98.676 145.779C97.1172 145.079 95.8701 142.957 95.6622 140.625L95.5583 139.459L94.8482 140.252C93.2893 141.954 90.3621 144.333 88.5261 145.382C85.7375 146.968 84.1786 147.458 82.1175 147.341C80.6452 147.271 80.3161 147.178 79.2769 146.502C78.1164 145.732 76.4882 143.797 76.2977 142.934C76.2284 142.701 76.1418 142.491 76.0725 142.491C76.0032 142.491 75.6395 143.307 75.2585 144.286C74.1153 147.225 71.6731 152.729 70.5126 154.967C68.157 159.468 64.2425 165.112 61.3153 168.167C55.5821 174.184 49.2081 178.102 43.856 178.895C41.4484 179.244 37.43 179.011 35.6806 178.428C30.7269 176.749 27.0723 172.621 24.7859 166.161C23.1405 161.497 22.3957 156.623 22.0839 148.438C21.8414 142.141 23.0539 130.527 24.8552 121.828C28.1461 105.924 33.5156 91.6978 40.2014 81.1567C44.9645 73.6474 50.6284 67.9105 55.1664 65.9981C58.5613 64.5756 60.7783 64.319 62.9261 65.042ZM217.254 82.8825C219.107 83.792 220.493 86.4506 220.493 89.1558C220.493 90.4384 219.938 92.1875 219.176 93.2836C216.318 97.3881 211.261 95.1959 210.845 89.6688C210.689 87.6399 211.157 85.9841 212.352 84.3983C212.906 83.6287 213.599 82.9524 213.928 82.8358C214.777 82.486 216.491 82.5327 217.254 82.8825ZM132.677 117.817C133.127 118.237 133.543 119.123 134.461 121.618C135.119 123.414 135.69 125.21 135.742 125.63C135.881 126.702 135.431 127.332 134.565 127.332C133.491 127.332 132.919 126.469 132.278 123.834C131.568 121.035 131.326 120.896 130.356 122.831C129.126 125.326 128.468 126.376 127.948 126.656C127.463 126.936 127.394 126.912 127.013 126.283C126.372 125.303 126.632 124.487 128.918 120.103C130.338 117.351 131.447 116.698 132.677 117.817ZM99.9751 120.732C100.425 121.269 100.373 121.945 99.7846 123.181C99.2303 124.37 98.8146 124.767 98.1391 124.767C97.0999 124.767 96.8574 122.132 97.7754 120.896C98.2777 120.219 99.4728 120.126 99.9751 120.732ZM195.17 120.616C195.516 121.082 195.395 122.295 194.91 123.298C193.819 125.56 192.225 125.093 192.502 122.575C192.693 120.965 193.143 120.336 194.148 120.336C194.598 120.336 195.048 120.452 195.17 120.616ZM112.307 157.09C113.329 157.789 113.71 158.605 113.71 160.098C113.71 161.147 113.641 161.451 113.225 162.034C112.688 162.78 111.667 163.246 110.523 163.246C109.831 163.246 109.813 163.27 109.813 164.039C109.813 164.459 109.935 164.949 110.073 165.112C110.662 165.765 110.368 166.045 109.12 166.045C107.873 166.045 107.579 165.765 108.168 165.112C108.566 164.669 108.549 158.069 108.15 157.533C107.995 157.346 107.925 156.996 107.977 156.81C108.15 156.227 111.389 156.437 112.307 157.09ZM127.965 157.439C128.035 158.186 127.654 158.629 127.013 158.535C126.424 158.442 126.285 157.813 126.718 157.16C127.169 156.483 127.896 156.646 127.965 157.439ZM136.834 158.815C136.834 159.468 136.886 159.515 137.457 159.515C137.942 159.515 138.063 159.585 138.011 159.911C137.977 160.191 137.769 160.354 137.422 160.401C136.868 160.471 136.868 160.494 136.799 162.01C136.764 162.85 136.764 163.853 136.799 164.226C136.886 164.925 137.076 164.995 138.029 164.622C138.41 164.459 138.444 165.042 138.063 165.555C137.63 166.138 136.989 166.371 136.383 166.185C135.742 165.951 135.448 164.809 135.448 162.43C135.448 160.821 135.396 160.448 135.188 160.448C134.703 160.448 134.928 159.562 135.586 158.839C136.435 157.906 136.834 157.906 136.834 158.815ZM118.526 159.841C118.595 159.981 118.629 160.354 118.612 160.681C118.543 161.404 118.058 161.567 117.608 161.031C117.313 160.658 117.261 160.681 116.932 161.124C116.638 161.521 116.568 161.894 116.568 163.2C116.568 164.202 116.655 164.949 116.828 165.252C117.175 165.928 117.019 166.045 115.841 166.045C114.767 166.045 114.628 165.858 115.096 165.019C115.46 164.366 115.442 161.754 115.061 160.891C114.698 160.075 114.854 159.795 115.754 159.585C116.343 159.468 116.395 159.492 116.395 160.005C116.395 160.354 116.447 160.448 116.534 160.285C116.932 159.445 118.179 159.165 118.526 159.841ZM123.878 159.935C124.796 160.658 125.142 162.64 124.64 164.272C123.947 166.488 121.453 166.931 120.275 165.042C119.877 164.389 119.825 164.179 119.894 162.85C119.963 161.521 120.032 161.287 120.587 160.541C121.522 159.282 122.752 159.049 123.878 159.935ZM127.931 159.865C128.121 160.868 127.913 167.514 127.688 168.074C127.446 168.657 126.528 169.076 126.025 168.843C125.644 168.657 125.437 168.144 125.731 168.144C125.835 168.144 126.077 167.934 126.268 167.677C126.58 167.257 126.614 166.908 126.614 164.226C126.614 161.987 126.545 161.124 126.355 160.751C126.06 160.191 126.199 159.981 127.047 159.562C127.792 159.212 127.809 159.212 127.931 159.865ZM132.538 159.515C133.265 159.795 133.889 160.704 133.889 161.521C133.889 161.964 133.681 162.15 132.503 162.757C131.759 163.153 131.048 163.479 130.945 163.479C130.667 163.479 130.737 163.899 131.118 164.412C131.568 165.019 132.555 165.019 133.317 164.389C134.01 163.806 134.201 163.946 133.924 164.762C133.681 165.462 132.486 166.255 131.672 166.278C130.598 166.278 129.524 165.135 129.299 163.713C129.16 162.85 129.472 161.311 129.957 160.564C130.165 160.238 130.65 159.818 131.031 159.632C131.88 159.235 131.776 159.235 132.538 159.515ZM142.757 159.515C144.541 160.191 144.974 163.573 143.502 165.322C142.03 167.048 139.674 166.231 139.345 163.876C139.068 161.94 139.761 160.261 141.077 159.632C141.926 159.235 141.96 159.235 142.757 159.515Z" fill="#0389B4"/>
<path d="M175.978 80.0139C174.714 80.2938 173.865 80.9001 172.583 82.3693C171.007 84.1884 170.159 85.6576 169.223 88.2695C167.699 92.4673 167.231 96.082 167.37 102.495C167.491 108.722 168.392 114.715 170.193 121.455C171.094 124.813 173.813 132.463 174.489 133.512L174.939 134.212L175.857 132.882C176.931 131.343 178.854 127.775 179.979 125.233C183.114 118.237 184.985 108.652 184.985 99.7201C184.985 91.651 183.859 85.6809 181.711 82.4859C180.88 81.2499 179.997 80.527 178.802 80.1072C177.71 79.7107 177.381 79.7107 175.978 80.0139Z" fill="#0389B4"/>
<path d="M112.446 82.3694C111.667 83.7221 111.164 86.5905 110.61 92.9338C109.779 102.425 109.224 112.733 109.034 122.318C108.982 125.14 108.895 127.705 108.861 128.032C108.618 129.921 110.471 122.855 111.563 117.677C113.555 108.186 115.113 93.0971 114.663 87.6166C114.455 85.2146 114.109 83.3956 113.71 82.6026C113.399 82.0429 112.723 81.9263 112.446 82.3694Z" fill="#0389B4"/>
<path d="M82.8796 131.437C82.4985 131.623 81.9616 132.043 81.6671 132.369L81.1475 132.952L81.6671 132.836C84.144 132.276 85.062 131.786 84.525 131.297C84.1786 130.993 83.711 131.04 82.8796 131.437Z" fill="#0389B4"/>
<path d="M126.753 132.626C124.969 133.326 123.41 136.217 122.856 139.879C122.509 142.048 122.631 143.26 123.237 143.797C123.583 144.1 123.756 144.123 124.259 143.89C125.644 143.284 127.706 139.925 129.022 136.147C129.992 133.419 129.992 133.302 129.438 132.952C128.554 132.416 127.584 132.299 126.753 132.626Z" fill="#0389B4"/>
<path d="M207.935 132.463C205.839 133.069 203.726 137.034 203.553 140.742C203.449 142.957 203.57 143.54 204.194 143.89C205.545 144.636 207.866 141.511 209.823 136.264C210.256 135.075 210.62 133.885 210.62 133.629C210.62 132.883 208.974 132.183 207.935 132.463Z" fill="#0389B4"/>
<path d="M164.98 132.836C163.248 134.025 161.775 137.873 161.775 141.161C161.775 143.867 162.711 145.079 164.408 144.59C166.4 144.03 171.302 139.785 171.302 138.643C171.302 137.85 168.409 133.815 167.283 133.069C166.244 132.369 165.707 132.323 164.98 132.836Z" fill="#0389B4"/>
<path d="M214.5 85.3545C213.599 85.9375 213.322 86.264 212.975 87.1735C212.56 88.2463 212.594 89.5523 213.045 90.8349C213.789 92.9105 215.781 93.6101 217.219 92.2808C218.206 91.3713 218.501 90.625 218.501 88.9926C218.501 87.7566 218.414 87.3834 218.016 86.6605C217.132 85.098 215.729 84.5849 214.5 85.3545Z" fill="#0389B4"/>
<path d="M109.813 159.865V162.313H110.523C111.719 162.313 112.394 161.591 112.411 160.261C112.411 158.652 111.476 157.416 110.246 157.416H109.813V159.865Z" fill="#0389B4"/>
<path d="M121.349 160.961C120.621 162.337 121.487 165.345 122.596 165.345C123.012 165.345 123.67 164.226 123.67 163.503C123.67 162.523 123.185 160.961 122.786 160.681C122.267 160.285 121.626 160.425 121.349 160.961Z" fill="#0389B4"/>
<path d="M131.17 160.471C130.806 160.634 130.252 162.383 130.46 162.663C130.563 162.826 132.192 162.08 132.451 161.754C132.625 161.544 132.625 161.381 132.417 160.984C132.122 160.401 131.672 160.215 131.17 160.471Z" fill="#0389B4"/>
<path d="M140.904 160.914C140.506 161.497 140.506 163.13 140.887 164.133C141.649 166.115 143.069 165.555 143.069 163.27C143.069 161.101 141.753 159.655 140.904 160.914Z" fill="#0389B4"/>
</g>
<defs>
<clipPath id="clip0_181_2">
<rect width="256" height="250" rx="125" fill="white"/>
</clipPath>
</defs>
</svg>
