<?xml version="1.0" standalone="no"?>
<!DOCTYPE svg PUBLIC "-//W3C//DTD SVG 20010904//EN"
 "http://www.w3.org/TR/2001/REC-SVG-20010904/DTD/svg10.dtd">
<svg version="1.0" xmlns="http://www.w3.org/2000/svg"
 width="1478.000000pt" height="1072.000000pt" viewBox="0 0 1478.000000 1072.000000"
 preserveAspectRatio="xMidYMid meet">

<g transform="translate(0.000000,1072.000000) scale(0.100000,-0.100000)"
fill="#000000" stroke="none">
<path d="M0 5360 l0 -5360 7390 0 7390 0 0 5360 0 5360 -7390 0 -7390 0 0
-5360z m9650 3504 c63 -4 117 -8 120 -9 3 0 32 -5 65 -9 33 -4 76 -10 95 -12
58 -8 191 -34 234 -45 23 -6 57 -15 76 -19 85 -22 343 -106 420 -138 180 -73
517 -250 648 -339 77 -53 162 -113 177 -124 201 -163 368 -319 514 -484 69
-78 184 -230 251 -328 46 -70 51 -82 41 -103 -6 -14 -18 -27 -26 -30 -34 -14
-61 8 -122 99 -72 107 -76 112 -216 282 -46 55 -282 294 -337 340 -19 17 -69
57 -110 90 -41 33 -77 62 -80 65 -9 9 -71 51 -160 110 -180 119 -441 256 -600
316 -36 13 -74 28 -85 33 -35 17 -208 72 -285 93 -340 88 -586 118 -935 113
-511 -8 -995 -127 -1445 -356 -270 -137 -414 -232 -649 -426 -98 -81 -129
-102 -145 -97 -60 18 -61 57 -3 110 99 93 335 274 420 323 18 11 70 42 117 71
441 269 1012 446 1536 476 66 4 120 7 121 8 5 4 260 -3 363 -10z m-6017 -933
c94 -24 147 -57 191 -119 57 -77 71 -137 70 -292 0 -141 -17 -254 -70 -465
-85 -338 -312 -870 -422 -987 -21 -23 -34 -28 -75 -28 -61 0 -87 14 -87 45 0
14 42 121 94 238 164 371 232 544 293 747 114 383 107 641 -20 732 -27 19 -45
23 -107 23 -194 -1 -507 -173 -778 -429 -390 -369 -762 -990 -978 -1631 -228
-674 -306 -1328 -218 -1810 37 -207 143 -435 260 -565 45 -50 137 -116 219
-159 168 -87 382 -95 635 -25 116 32 207 70 397 169 260 135 426 252 619 437
182 176 319 352 516 663 118 186 182 313 202 399 22 93 49 141 120 212 66 65
138 105 224 123 75 16 219 14 279 -4 110 -33 142 -124 69 -197 -55 -55 -118
-77 -262 -89 -180 -15 -200 -21 -215 -66 -15 -48 -6 -139 19 -189 26 -51 56
-78 116 -105 41 -18 61 -20 113 -16 131 13 355 110 586 255 l92 58 8 90 c10
114 21 156 53 194 20 24 34 30 64 30 52 0 68 -8 86 -41 12 -25 14 -60 8 -212
-7 -196 -1 -240 39 -284 30 -34 93 -31 143 5 53 39 138 134 171 190 15 26 31
49 35 52 4 3 3 53 -3 110 -16 168 -23 958 -10 1175 31 518 101 867 213 1063
117 205 326 132 396 -138 23 -90 27 -418 8 -590 -55 -483 -158 -894 -321
-1285 -88 -210 -98 -244 -90 -325 9 -98 44 -257 72 -326 77 -194 185 -214 336
-61 91 93 131 160 144 241 26 156 147 310 307 391 77 39 82 40 180 40 84 0
109 -4 150 -23 l50 -23 20 25 c45 53 116 62 160 21 31 -28 32 -49 11 -185 -23
-146 -20 -256 8 -310 24 -50 55 -70 106 -70 59 0 116 37 211 137 l90 95 0 149
c0 141 1 149 22 163 32 23 103 21 128 -4 23 -23 28 -41 38 -140 l7 -75 57 76
c68 92 151 169 215 200 68 34 184 34 231 1 60 -43 68 -70 63 -227 -2 -77 -5
-193 -5 -257 -1 -109 1 -119 22 -140 22 -22 23 -22 55 -5 51 28 147 162 237
334 40 77 122 156 197 191 73 33 205 42 300 19 l62 -14 -14 31 c-7 17 -36 81
-63 141 -152 336 -223 663 -223 1035 0 425 125 745 370 944 198 161 431 191
635 83 255 -135 406 -549 382 -1047 -25 -515 -203 -933 -593 -1393 -46 -54
-83 -102 -83 -106 0 -26 161 -203 217 -239 144 -92 309 -47 490 134 51 50 94
102 97 115 2 13 9 71 15 129 17 179 44 230 120 230 96 0 103 -19 95 -252 -9
-255 8 -308 99 -308 80 0 177 92 222 210 54 145 156 253 305 323 50 24 81 32
145 35 77 4 112 -3 206 -42 11 -5 18 -1 22 14 6 23 62 50 107 50 19 0 41 -11
62 -28 l31 -29 -23 -174 c-27 -208 -21 -265 34 -324 28 -29 40 -35 76 -35 43
0 100 21 120 45 5 7 19 59 30 116 10 57 21 114 24 127 31 145 49 585 32 772
-22 247 -62 466 -127 691 -38 132 -39 142 -24 165 17 26 42 31 68 12 40 -30
124 -350 162 -618 8 -63 18 -128 21 -145 3 -16 7 -147 9 -290 4 -249 -3 -400
-25 -530 -5 -33 -12 -78 -16 -100 -3 -22 -8 -44 -12 -50 -3 -5 22 18 54 53 33
34 65 62 72 62 52 0 -18 -157 -130 -291 -25 -30 -46 -70 -59 -115 -87 -294
-121 -380 -256 -646 -141 -279 -228 -414 -417 -646 -87 -107 -327 -352 -413
-422 -31 -25 -61 -50 -67 -56 -30 -28 -212 -159 -301 -216 -248 -161 -528
-293 -830 -393 -50 -17 -293 -80 -336 -89 -13 -2 -42 -7 -64 -11 -22 -4 -49
-9 -60 -11 -52 -10 -250 -34 -335 -41 -226 -18 -544 -4 -814 37 -70 10 -102
35 -92 73 9 37 47 46 125 31 36 -7 93 -16 126 -19 33 -3 74 -8 90 -11 78 -12
517 -11 640 2 694 74 1341 350 1850 788 73 63 299 286 350 346 296 348 505
716 651 1149 19 57 33 106 30 108 -3 3 -25 0 -50 -6 -100 -25 -240 -7 -289 37
-26 23 -54 80 -62 127 -4 22 -10 43 -12 47 -2 4 -31 -32 -63 -81 -70 -103
-122 -154 -196 -188 -102 -47 -217 -40 -307 17 -34 21 -52 43 -74 88 l-28 59
-35 -33 c-54 -51 -135 -88 -205 -92 -66 -4 -98 7 -163 55 -38 28 -92 117 -92
152 0 22 -3 20 -28 -15 -56 -76 -186 -188 -267 -229 -74 -38 -83 -40 -169 -39
-81 0 -99 4 -161 32 -82 39 -188 118 -263 196 -30 31 -62 56 -72 56 -10 0 -69
-34 -131 -76 -256 -172 -437 -226 -600 -178 -70 21 -130 81 -149 149 l-13 48
-31 -39 c-157 -198 -337 -211 -417 -30 -20 43 -23 68 -23 166 0 63 3 175 8
248 9 130 9 132 -12 132 -58 0 -192 -234 -294 -515 -49 -134 -74 -165 -135
-165 -33 0 -50 6 -68 25 -24 23 -25 30 -25 146 l0 122 -28 -39 c-49 -67 -138
-141 -200 -165 -76 -30 -259 -34 -309 -6 -61 33 -98 89 -111 170 l-8 42 -55
-85 c-69 -105 -124 -159 -195 -194 -137 -67 -308 -32 -374 77 l-18 28 -20 -34
c-30 -48 -130 -140 -182 -168 -39 -21 -59 -24 -145 -24 -83 0 -107 4 -140 21
-52 28 -108 83 -140 138 -34 57 -81 189 -90 249 l-8 49 -37 -59 c-54 -86 -152
-180 -218 -211 -66 -30 -145 -39 -195 -23 -90 30 -162 121 -174 221 l-6 50
-41 -34 c-90 -73 -259 -175 -365 -220 -161 -68 -251 -89 -370 -84 -85 3 -104
7 -164 36 -67 33 -161 116 -172 153 -4 10 -9 19 -13 19 -4 0 -25 -35 -47 -77
-66 -126 -207 -362 -274 -458 -136 -193 -362 -435 -531 -566 -331 -258 -699
-426 -1008 -460 -139 -15 -371 -5 -472 20 -286 72 -497 249 -629 526 -95 200
-138 409 -156 760 -14 270 56 768 160 1141 190 682 500 1292 886 1744 275 322
602 568 864 650 196 61 324 72 448 41z m8910 -765 c107 -39 187 -153 187 -269
0 -55 -32 -130 -76 -177 -165 -176 -457 -82 -481 155 -9 87 18 158 87 226 32
33 72 62 91 67 49 15 148 13 192 -2z m-4883 -1498 c26 -18 50 -56 103 -163 38
-77 71 -154 74 -172 8 -46 -18 -73 -68 -73 -62 0 -95 37 -132 150 -41 120 -55
126 -111 43 -71 -107 -109 -152 -139 -164 -28 -12 -32 -11 -54 16 -37 42 -22
77 110 265 82 118 146 146 217 98z m-1888 -125 c26 -23 23 -52 -11 -105 -32
-51 -56 -68 -95 -68 -60 0 -74 113 -21 166 29 29 98 33 127 7z m5496 5 c20
-20 13 -72 -15 -115 -63 -97 -155 -77 -139 31 11 69 37 96 95 96 26 0 52 -5
59 -12z m-4784 -1564 c59 -30 81 -65 81 -129 0 -45 -4 -58 -28 -83 -31 -32
-90 -52 -156 -52 -40 0 -41 -1 -41 -34 0 -18 7 -39 15 -46 34 -28 17 -40 -55
-40 -72 0 -89 12 -55 40 23 19 22 302 -1 325 -9 8 -13 23 -10 31 10 25 197 16
250 -12z m904 -15 c4 -32 -18 -51 -55 -47 -34 4 -42 31 -17 59 26 29 68 22 72
-12z m512 -59 c0 -28 3 -30 36 -30 28 0 35 -3 32 -17 -2 -12 -14 -19 -34 -21
-32 -3 -32 -4 -36 -69 -2 -36 -2 -79 0 -95 5 -30 16 -33 71 -17 22 7 24 -18 2
-40 -25 -25 -62 -35 -97 -27 -37 10 -54 59 -54 161 0 69 -3 85 -15 85 -28 0
-15 38 23 69 49 40 72 40 72 1z m-1057 -44 c4 -6 6 -22 5 -36 -4 -31 -32 -38
-58 -15 -17 16 -20 15 -39 -4 -17 -17 -21 -33 -21 -89 0 -43 5 -75 15 -88 20
-29 11 -34 -57 -34 -62 0 -70 8 -43 44 21 28 20 140 -2 177 -21 35 -12 47 40
56 34 5 37 4 37 -18 0 -15 3 -19 8 -12 23 36 95 48 115 19z m309 -4 c53 -31
73 -116 44 -186 -40 -95 -184 -114 -252 -33 -23 28 -26 37 -22 94 4 57 8 67
40 99 54 54 125 64 190 26z m234 3 c11 -43 -1 -328 -14 -352 -14 -25 -67 -43
-96 -33 -22 8 -34 30 -17 30 6 0 20 9 31 20 18 18 20 33 20 148 0 96 -4 133
-15 149 -17 24 -9 33 40 51 43 15 44 15 51 -13z m266 15 c42 -12 78 -51 78
-86 0 -19 -12 -27 -80 -53 -43 -17 -84 -31 -90 -31 -16 0 -12 -18 10 -40 26
-26 83 -26 127 1 40 25 51 19 35 -16 -14 -30 -83 -64 -130 -65 -62 0 -124 49
-137 110 -8 37 10 103 38 135 12 14 40 32 62 40 49 17 43 17 87 5z m590 0
c103 -29 128 -174 43 -249 -85 -74 -221 -39 -240 62 -16 83 24 155 100 182 49
17 51 17 97 5z"/>
<path d="M10160 7289 c-73 -12 -122 -38 -196 -101 -91 -78 -140 -141 -194
-253 -88 -180 -115 -335 -107 -610 7 -267 59 -524 163 -813 52 -144 209 -472
248 -517 l26 -30 53 57 c62 66 173 219 238 328 181 300 289 711 289 1094 0
346 -65 602 -189 739 -48 53 -99 84 -168 102 -63 17 -82 17 -163 4z"/>
<path d="M6492 7188 c-45 -58 -74 -181 -106 -453 -48 -407 -80 -849 -91 -1260
-3 -121 -8 -231 -10 -245 -14 -81 93 222 156 444 115 407 205 1054 179 1289
-12 103 -32 181 -55 215 -18 24 -57 29 -73 10z"/>
<path d="M4785 5084 c-22 -8 -53 -26 -70 -40 l-30 -25 30 5 c143 24 196 45
165 66 -20 13 -47 11 -95 -6z"/>
<path d="M7318 5033 c-103 -30 -193 -154 -225 -311 -20 -93 -13 -145 22 -168
20 -13 30 -14 59 -4 80 26 199 170 275 332 56 117 56 122 24 137 -51 23 -107
28 -155 14z"/>
<path d="M12005 5040 c-121 -26 -243 -196 -253 -355 -6 -95 1 -120 37 -135 78
-32 212 102 325 327 25 51 46 102 46 113 0 32 -95 62 -155 50z"/>
<path d="M9525 5024 c-100 -51 -185 -216 -185 -357 0 -116 54 -168 152 -147
115 24 398 206 398 255 0 34 -167 207 -232 239 -60 30 -91 32 -133 10z"/>
<path d="M12384 7060 c-52 -25 -68 -39 -88 -78 -24 -46 -22 -102 4 -157 43
-89 158 -119 241 -62 57 39 74 71 74 141 0 53 -5 69 -28 100 -51 67 -132 89
-203 56z"/>
<path d="M6340 3865 l0 -105 41 0 c69 0 108 31 109 88 0 69 -54 122 -125 122
l-25 0 0 -105z"/>
<path d="M7006 3818 c-42 -59 8 -188 72 -188 24 0 62 48 62 79 0 42 -28 109
-51 121 -30 17 -67 11 -83 -12z"/>
<path d="M7573 3839 c-21 -7 -53 -82 -41 -94 6 -7 100 25 115 39 10 9 10 16
-2 33 -17 25 -43 33 -72 22z"/>
<path d="M8135 3820 c-23 -25 -23 -95 -1 -138 44 -85 126 -61 126 37 0 93 -76
155 -125 101z"/>
</g>
</svg>
