<svg width="39" height="42" viewBox="0 0 39 42" fill="none" xmlns="http://www.w3.org/2000/svg">
<path d="M34.125 0H4.875C2.19987 0 0 2.5843 0 5.46659V36.7815C0 39.6637 2.16813 42 4.84333 42H33.902C36.5771 42 39 39.6322 39 36.75V5.25C39 2.36772 36.8001 0 34.125 0ZM29.25 28.875H9.75C9.07725 28.875 8.53125 28.287 8.53125 27.5625C8.53125 26.838 9.07725 26.25 9.75 26.25H29.25C29.9228 26.25 30.4688 26.838 30.4688 27.5625C30.4688 28.287 29.9228 28.875 29.25 28.875ZM29.25 21H9.75C9.07725 21 8.53125 20.412 8.53125 19.6875C8.53125 18.963 9.07725 18.375 9.75 18.375H29.25C29.9228 18.375 30.4688 18.963 30.4688 19.6875C30.4688 20.412 29.9228 21 29.25 21ZM29.25 13.125H9.75C9.07725 13.125 8.53125 12.537 8.53125 11.8125C8.53125 11.088 9.07725 10.5 9.75 10.5H29.25C29.9228 10.5 30.4688 11.088 30.4688 11.8125C30.4688 12.537 29.9228 13.125 29.25 13.125Z" fill="white"/>
</svg>
