<svg width="70" height="65" viewBox="0 0 70 65" fill="none" xmlns="http://www.w3.org/2000/svg">
<path d="M0.478516 53.4979C8.13477 54.1454 14.9844 52.3681 21.1914 48.0516C20.2344 47.8485 19.3594 47.8485 18.5254 47.6581C13.6445 46.579 10.2676 43.8495 8.28516 39.5966C8.18945 39.3807 7.94336 39.1141 8.16211 38.8983C8.32617 38.7333 8.64062 38.8729 8.87305 38.8983C10.5957 39.0634 12.3184 39.0126 14.0137 38.6444C14.041 38.3651 13.8223 38.3905 13.6582 38.3397C9.46094 37.2987 6.41211 34.9755 4.44336 31.3827C3.54102 29.7323 3.04883 28.0058 2.99414 26.1522C2.9668 25.4286 3.00781 25.4159 3.73242 25.7333C5.45508 26.495 7.25977 26.9266 9.32422 27.0155C8.38086 26.3046 7.5332 25.6825 6.80859 24.9335C4.60742 22.661 3.37695 20.0077 3.11719 16.9481C2.91211 14.4599 3.47266 12.1366 4.63477 9.90224C4.89453 9.40712 5.12695 9.44521 5.45508 9.81337C7.73828 12.4032 10.4043 14.5995 13.3438 16.5038C15.5312 17.9257 17.8555 19.1063 20.3027 20.1093C23.5293 21.4169 26.8789 22.2929 30.3516 22.8134C31.4453 22.9784 32.5664 23.0165 33.6738 23.1181C34.2344 23.1688 34.3848 23.0165 34.2754 22.4833C33.7148 19.7411 34.0977 17.0751 35.3828 14.5741C37.584 10.3085 41.2754 7.71864 46.293 7.0331C50.75 6.42372 54.7559 7.60439 58.0781 10.5116C58.584 10.9559 59.0352 11.0702 59.7188 10.9052C62.3984 10.2704 64.9551 9.36903 67.3613 8.0995C67.4297 8.06142 67.5117 8.04872 67.7578 7.95985C66.6367 11.0194 64.6543 13.2792 61.8789 15.0058C62.5215 15.12 64.4219 14.8026 65.7344 14.4218C66.9922 14.0536 68.25 13.7235 69.4531 13.2284C69.6172 13.3934 69.4668 13.4823 69.3984 13.5712C67.7988 15.6659 65.9668 17.5575 63.7793 19.1317C63.4785 19.3475 63.1914 19.5888 62.877 19.7919C62.6445 19.9442 62.6309 20.1347 62.6445 20.3505C62.7402 22.661 62.5625 24.9589 62.207 27.2313C61.8379 29.5546 61.209 31.8143 60.375 34.036C59.6914 35.8515 58.8848 37.6161 57.9277 39.33C55.5625 43.5448 52.4863 47.2518 48.6445 50.413C44.5566 53.7645 39.9082 56.1766 34.7129 57.6747C31.4727 58.6141 28.1504 59.16 24.7461 59.3251C22.1211 59.452 19.5098 59.414 16.9121 59.1093C13.1934 58.6903 9.61133 57.7509 6.16602 56.3798C4.40234 55.6815 2.73438 54.8436 1.06641 53.9677C0.833984 53.8788 0.601562 53.7772 0.478516 53.4979Z" fill="#A7A7A7"/>
</svg>
